# xmcd CD database file
#
# Track frame offsets:
#	150
#	13752
#	34205
#	52142
#	77045
#
# Disc length: 1349 seconds
#
# Revision: 0
# Processed by: cddbd v1.5.1PL2 Copyright (c) Steve Scherf et al.
# Submitted via: CDex 1.50
#
DISCID=3b054305
DTITLE=パピーペット - 愛染橋
DYEAR=2005
DGENRE=Punk Rock
TTITLE0=愛染橋
TTITLE1=心に目覚めた大きなチカラ
TTITLE2=早撃ちロジャース
TTITLE3=愛染橋(オマケ)
TTITLE4=Go!Go!Monkey!!
EXTD=YEAR: 2005
EXTT0=
EXTT1=
EXTT2=
EXTT3=
EXTT4=
PLAYORDER=
